<svg width="213" height="191" viewBox="0 0 213 191" fill="none" xmlns="http://www.w3.org/2000/svg">
<g clip-path="url(#clip0_2030_79)">
<path d="M71.8352 60.6109C84.6592 58.8791 89.9692 62.4445 92.7745 73.8535C108.604 75.6871 112.912 79.9655 112.812 93.9213C113.914 94.125 115.016 94.3287 116.118 94.6343C124.634 96.8754 129.443 105.228 126.137 113.48C119.224 130.491 112.612 147.707 104.396 164.107C95.8803 181.017 81.9542 192.528 62.3173 191C38.4725 189.065 13.6258 175.211 3.90759 145.771C-1.20201 130.288 -2.00352 115.11 5.41041 100.237C10.3196 90.4578 17.2326 83.0215 28.1531 80.373C31.5595 79.5581 33.1625 77.5208 34.2646 74.1591C40.9772 53.4802 47.8902 32.9031 54.8032 12.2242C56.9071 6.01035 60.6141 1.32448 67.3267 0.305814C73.338 -0.610986 78.6479 1.01888 82.2547 6.31595C85.5609 11.1037 85.6611 16.2989 83.9579 21.6978C79.9504 34.533 75.8427 47.2663 71.6348 60.7127L71.8352 60.6109ZM29.7561 87.7074C29.2552 87.1981 28.8544 86.5869 28.3535 86.0775C24.346 89.0317 19.7373 91.3746 16.6315 95.0418C8.21568 105.025 5.10984 117.351 7.01342 130.084C10.8206 155.856 24.7467 173.581 49.6936 181.527C70.3323 188.046 87.2641 182.138 97.4833 162.783C105.799 146.892 112.211 129.982 119.224 113.48C121.929 107.164 120.527 103.293 115.517 101.154C109.306 98.5053 109.306 103.904 107.302 107.266C106.5 108.692 104.296 109.405 102.693 110.424C102.192 108.59 100.99 106.655 101.391 105.025C102.493 100.644 104.597 96.4679 105.799 92.0877C107.001 87.8093 105.398 84.2439 101.691 81.901C98.0844 79.6599 94.6781 80.4749 91.3718 82.9197C89.0675 84.6514 88.767 90.7634 84.4589 87.6055C83.0562 86.5869 84.2585 81.2898 85.06 78.132C86.3624 73.3442 85.9617 69.3714 81.2528 67.0285C77.1451 64.9911 72.837 67.0285 70.132 71.9181C68.3286 75.1778 66.6254 78.5394 64.6216 81.6973C64.0205 82.6141 61.9165 83.429 61.2152 83.0215C60.1131 82.3085 59.3116 80.6786 59.1113 79.3543C58.9109 78.1319 59.7124 76.7058 60.1131 75.3815C65.924 57.1474 71.8352 38.8114 77.6461 20.5773C79.8502 13.5485 78.147 8.55701 72.837 6.62155C67.8276 4.78795 63.1188 7.94581 60.7143 14.7709C59.8126 17.4194 59.0111 20.0679 58.1094 22.6146C48.5915 51.1373 39.1738 79.6599 29.5558 108.183C28.9546 109.914 26.1494 110.831 24.346 112.155C24.0454 110.016 23.0435 107.775 23.5445 105.942C25.2477 99.6258 27.552 93.6157 29.6559 87.4018L29.7561 87.7074Z" fill="#FEED00"/>
<path d="M157.097 47.1643H134.755V40.543L119.426 49.5072L134.755 58.5734V51.952H157.097V47.1643Z" fill="#FEED00"/>
<path d="M175.33 51.952H197.672V58.5734L213.001 49.5072L197.672 40.543V47.1643H175.33V51.952Z" fill="#FEED00"/>
<path d="M168.517 40.2374V17.5211H175.03L166.213 1.93555L157.396 17.5211H163.909V40.2374H168.517Z" fill="#FEED00"/>
<path d="M163.909 58.7773V81.5955H157.396L166.213 97.1811L175.03 81.5955H168.517V58.7773H163.909Z" fill="#FEED00"/>
</g>
<defs>
<clipPath id="clip0_2030_79">
<rect width="213" height="191" fill="white"/>
</clipPath>
</defs>
</svg>
