<svg width="154" height="154" viewBox="0 0 154 154" fill="none" xmlns="http://www.w3.org/2000/svg">
<path d="M150.981 89.0784L152.793 70.3569C154.202 55.6614 154.907 48.3137 152.39 45.1935C150.981 43.583 149.169 42.5765 147.156 42.3752C143.533 42.0732 138.903 47.3072 129.642 57.7752C124.912 63.2105 122.496 65.9281 119.879 66.3307C118.369 66.532 116.96 66.3307 115.551 65.6261C113.135 64.4183 111.424 60.9961 108.203 54.3529L90.9915 19.0235C84.8516 6.34118 81.7313 0 77.0006 0C72.2699 0 69.2503 6.34118 63.0098 19.0235L45.798 54.3529C42.5771 61.0967 40.866 64.4183 38.4503 65.6261C37.1418 66.3307 35.632 66.532 34.1222 66.3307C31.5052 65.9281 29.0895 63.2105 24.3588 57.7752C15.1993 47.3072 10.5692 42.0732 6.84506 42.3752C4.83199 42.5765 3.02022 43.583 1.61107 45.1935C-0.905267 48.2131 -0.200692 55.5608 1.20846 70.3569L3.02022 89.0784C5.93918 119.979 7.34833 135.379 16.5078 144.74C25.5666 154.101 39.2555 154.101 66.5326 154.101H87.4686C114.746 154.101 128.435 154.101 137.493 144.74C146.552 135.379 148.062 119.979 150.981 89.0784Z" fill="#FEED00"/>
</svg>
