<svg width="154" height="154" viewBox="0 0 154 154" fill="none" xmlns="http://www.w3.org/2000/svg">
<g clip-path="url(#clip0_2030_95)">
<path fill-rule="evenodd" clip-rule="evenodd" d="M154 77C154 119.576 119.476 154 77 154C34.5242 154 0 119.576 0 77C0 34.4235 34.5242 0 77 0C119.476 0 154 34.5242 154 77ZM100.15 53.9503C100.15 66.7333 89.783 77.1006 77 77.1006C64.217 77.1006 53.8497 66.7333 53.8497 53.9503C53.8497 41.1673 64.217 30.8 77 30.8C89.783 30.8 100.15 41.1673 100.15 53.9503ZM77 142.425C90.6889 142.425 103.472 138.197 114.041 130.95C118.671 127.729 120.684 121.69 117.966 116.758C112.329 106.492 100.855 100.15 77 100.15C53.1451 100.15 41.6706 106.592 36.034 116.758C33.3163 121.69 35.3294 127.83 39.9595 130.95C50.5281 138.197 63.2105 142.425 77 142.425Z" fill="#FEED00"/>
</g>
<defs>
<clipPath id="clip0_2030_95">
<rect width="154" height="154" fill="white"/>
</clipPath>
</defs>
</svg>
